<svg xmlns="http://www.w3.org/2000/svg" version="1.1" xmlns:xlink="http://www.w3.org/1999/xlink" width="256" height="256"><svg t="1752561421851" class="icon" viewBox="0 0 1024 1024" version="1.1" xmlns="http://www.w3.org/2000/svg" p-id="5067" width="256" height="256" xmlns:xlink="http://www.w3.org/1999/xlink"><path d="M861.184 257.536h-85.504V162.816c0-80.384-65.536-145.92-145.92-145.92H174.08C93.696 16.896 28.16 82.432 28.16 162.816v99.84c0 22.528 18.432 40.96 40.96 40.96s40.96-18.432 40.96-40.96V162.816c0-35.328 28.672-64 64-64h455.68c35.328 0 64 28.672 64 64v94.72H400.384c-78.848 0-143.36 64.512-143.36 143.36v281.6H174.08c-35.328 0-64-28.672-64-64V449.024c0-22.528-18.432-40.96-40.96-40.96s-40.96 18.432-40.96 40.96v169.984c0 80.384 65.536 145.92 145.92 145.92h82.944v97.28c0 78.848 64.512 143.36 143.36 143.36h460.8c78.848 0 143.36-64.512 143.36-143.36v-460.8c0-79.36-64.512-143.872-143.36-143.872z m-522.24 143.36c0-33.792 27.648-61.44 61.44-61.44h293.376v279.04c0 35.328-28.672 64-64 64H338.944v-281.6z m583.68 460.8c0 33.792-27.648 61.44-61.44 61.44h-460.8c-33.792 0-61.44-27.648-61.44-61.44v-97.28H629.76c80.384 0 145.92-65.536 145.92-145.92V339.456h85.504c33.792 0 61.44 27.648 61.44 61.44v460.8z" fill="#d81e06" p-id="5068"></path></svg><style>@media (prefers-color-scheme: light) { :root { filter: none; } }
@media (prefers-color-scheme: dark) { :root { filter: invert(100%); } }
</style></svg>